<!-- icon666.com - MILLIONS vector ICONS FREE --><svg id="Layer_1" enable-background="new 0 0 512 512" viewBox="0 0 512 512" xmlns="http://www.w3.org/2000/svg"><g><path d="m245.002 0c-21.714 0-42.762 2.838-62.809 8.141l-46.196 17.404c-7.689 3.826-15.152 8.037-22.356 12.621l-108.727 157.792c-3.22 15.846-4.914 32.247-4.914 49.044 0 135.311 109.691 245.002 245.002 245.002s245.002-109.691 245.002-245.002-109.691-245.002-245.002-245.002z" fill="#27a6ff"></path><g><path d="m382.525 407.568c-2.678 0-5.232-1.544-6.395-4.147-8.23-18.424-26.611-22.864-26.796-22.907-3.768-.871-6.114-4.63-5.244-8.397.871-3.766 4.632-6.112 8.396-5.244 1.032.238 25.387 6.124 36.427 30.839 1.576 3.529-.007 7.669-3.537 9.246-.927.413-1.897.61-2.851.61z" fill="#47cb8f"></path></g><g><path d="m174.607 407.568c-2.678 0-5.232-1.544-6.395-4.147-8.23-18.424-26.611-22.864-26.796-22.907-3.768-.871-6.114-4.63-5.244-8.397.871-3.766 4.63-6.112 8.396-5.244 1.032.238 25.387 6.124 36.427 30.839 1.576 3.529-.007 7.669-3.537 9.246-.927.413-1.897.61-2.851.61z" fill="#47cb8f"></path></g><path d="m491.959 338.461c-20.05-16.139-44.841-25.191-65.063-17.242-.969 3.591-1.488 8.241.471 12.239 1.853 3.782 5.528 6.248 10.932 7.337l4.515 11.732c-.745 1.98-2.692 8.381.793 13.772 2.843 4.398 8.49 6.881 16.802 7.406 1.589-2.283 2.937-4.848 3.97-7.701 5.743-15.869 18.801-20.997 26.444-22.653 2.283-.494 2.957-3.424 1.136-4.89z" fill="#94dc79"></path><path d="m461.351 372.258c-25.285-1.152-16.926-19.718-16.926-19.718l-5.028-13.066c-13.711-2.327-12.655-12.766-10.753-18.889-7.173 2.447-13.823 6.925-19.539 13.906-10.583 12.926-9.055 31.914 3.385 43.064l1.517 1.359c14.33 12.844 37.061 9.967 47.344-6.656z" fill="#47cb8f"></path><path d="m286.909 321.258c6.684.498 18.378 3.3 25.138 16.089 1.509 2.855 3.375 5.278 5.489 7.285 2.279-.69 8.434-2.986 11.315-8.338 1.812-3.366 1.982-7.264.507-11.593l4.326-10.017c1.812-.829 7.127-3.68 9.101-9.318.995-2.842.965-5.925-.042-9.201-19.165-7.265-41.099 3.741-57.38 21.076-1.373 1.461-.453 3.868 1.546 4.017z" fill="#94dc79"></path><path d="m316.329 343.411c10.885 11.752 29.685 11.144 40.009-1.088l1.126-1.334c9.236-10.943 8.278-27.242-2.241-36.958-4.493-4.149-9.297-6.896-14.264-8.477 4.803 12.931-8.417 17.988-8.417 17.988l-4.796 11.105c5.494 14.815-11.374 18.754-11.417 18.764z" fill="#47cb8f"></path><g><path d="m383.206 441.961c-3.866 0-7-3.134-7-7v-126.033c0-10.829-3.676-21.49-10.35-30.02-2.383-3.044-1.846-7.443 1.199-9.826 3.041-2.384 7.442-1.847 9.826 1.199 8.593 10.979 13.324 24.705 13.324 38.647v126.033c.001 3.866-3.133 7-6.999 7z" fill="#94dc79"></path></g><g><path d="m175.288 441.961c-3.866 0-7-3.134-7-7v-126.033c0-10.828-3.676-21.489-10.35-30.02-2.383-3.045-1.846-7.444 1.199-9.826 3.043-2.384 7.444-1.847 9.826 1.199 8.593 10.982 13.324 24.706 13.324 38.647v126.033c.001 3.866-3.133 7-6.999 7z" fill="#94dc79"></path></g><path d="m185.497 126.262 38.6 54.8-59.745 4.935z" fill="#ffc242"></path><path d="m233.861 219.49c-8.251-3.617-13.259-8.626-14.885-14.886-2.911-11.204 5.897-22.985 5.986-23.103l.18-.238.212-.801-60.431 4.992-19.722 55.716 90.506-20.871c-.621-.271-1.24-.543-1.846-.809z" fill="#ffd402"></path><path d="m223.767 180.594s-20.613 27.07 9.491 40.27l53.787-12.404-5.09-32.673z" fill="#fef156"></path><path d="m190.463 82.519-46.757-26.995-17.616 30.237c-5.596-1.533-29.506-6.732-40.53 12.56-11.903 20.83-36.823 78.043-37.088 78.654-.189.468-4.617 11.623-3.669 26.919.312 5.035 1.264 10.868 3.39 17.051l61.294 35.388c13.984 8.074 31.865 1.476 37.253-13.746l50.326-142.174c2.399-6.777-.378-14.3-6.603-17.894z" fill="#fef156"></path><path d="m126.794 87.531 18.211-31.258-31.364-18.108c-55.122 35.081-95.274 91.585-108.727 157.793l45.237 26.118c-8.781-23.528-.288-44.538-.288-44.538s25-57.473 37-78.473 39.931-11.534 39.931-11.534z" fill="#ffd402"></path><path d="m135.997 25.545-22.433 38.854c-4.323 7.487-1.757 17.06 5.729 21.382 7.486 4.322 17.059 1.757 21.382-5.729l41.519-71.912c-16.11 4.261-31.567 10.124-46.197 17.405z" fill="#fffbb3"></path><path d="m339.151 190.383c10.937 1.095 29.764 5.084 48.397 18.919 11.403 8.467 11.293 25.564-.301 33.768-12.123 8.579-29.144 2.083-32.322-12.425-2.376-10.846-7.754-22.888-18.661-34.314-2.254-2.361-.361-6.273 2.887-5.948z" fill="#6ad9fb"></path><path d="m193.802 506.408c5.834-6.592 7.48-15.441 5.141-23.299-1.57-5.275.7-10.927 5.471-13.669 2.592-1.49 4.99-3.419 7.081-5.782 4.677-5.285 6.995-11.809 7.091-18.324-2.37-.894-4.458-2.54-5.874-4.813-4.334-6.959-12.052-11.591-20.855-11.591-3.827 0-7.449.877-10.677 2.439-4.354 2.107-9.496 2.107-13.85 0-3.227-1.562-6.85-2.439-10.677-2.439-8.803 0-16.521 4.632-20.855 11.591-2.91 4.671-8.647 6.717-13.862 4.962-2.834-.953-5.867-1.471-9.022-1.471-11.621 0-21.547 6.987-25.918 16.913-2.871 6.518-8.976 11-16.084 11.448-.179.011-.359.024-.539.039-13.833 1.126-24.947 12.402-25.878 26.249-.32 4.767.545 9.3 2.323 13.341h139.761c2.662-1.359 5.123-3.221 7.223-5.594z" fill="#9e533b"></path><g><path d="m304.017 498.665c-.928-13.847-12.04-25.126-25.873-26.255-.183-.015-.365-.028-.548-.04-7.105-.446-13.21-4.929-16.079-11.445-4.372-9.931-14.304-16.916-25.92-16.916-3.155 0-6.189.517-9.022 1.471-3.422 1.152-7.063.658-9.988-1.13.136 6.839-2.179 13.755-7.091 19.306-2.091 2.363-4.489 4.292-7.081 5.782-4.771 2.742-7.041 8.395-5.471 13.669 2.339 7.858.693 16.707-5.141 23.299-2.101 2.374-4.562 4.235-7.224 5.592h117.114c1.777-4.037 2.643-8.568 2.324-13.333z" fill="#8c3d2f"></path></g><path d="m511.935 498.665c-.928-13.847-12.04-25.126-25.873-26.255-.183-.015-.365-.028-.548-.04-7.105-.446-13.21-4.929-16.079-11.445-4.372-9.931-14.303-16.916-25.919-16.916-3.155 0-6.189.517-9.022 1.471-3.293 1.108-6.792.698-9.658-.928-.783-.076-1.568-.233-2.341-.494-3.052-1.027-6.249-1.549-9.501-1.549-11.814 0-22.526 6.99-27.291 17.809-2.688 6.104-8.361 10.149-14.809 10.555l-.564.041c-14.556 1.185-26.271 13.069-27.253 27.643-.313 4.665.436 9.181 2.202 13.441h164.331c1.778-4.037 2.644-8.568 2.325-13.333z" fill="#bc6b58"></path><path d="m344.574 498.659c.931-13.847 12.045-25.123 25.878-26.249.18-.015.36-.028.539-.039 7.108-.447 13.213-4.93 16.084-11.448 4.371-9.926 14.297-16.913 25.918-16.913 3.155 0 6.189.517 9.022 1.471 2.068.696 4.215.785 6.238.36-3.08-.648-5.868-2.503-7.624-5.322-4.334-6.959-12.052-11.591-20.855-11.591-3.827 0-7.449.877-10.677 2.439-4.354 2.107-9.496 2.107-13.85 0-3.228-1.562-6.85-2.439-10.677-2.439-8.803 0-16.521 4.632-20.855 11.591-2.91 4.671-8.647 6.717-13.862 4.962-2.834-.953-5.867-1.471-9.022-1.471-11.621 0-21.547 6.987-25.918 16.913-2.871 6.518-8.976 11-16.084 11.448-.179.011-.359.024-.539.039-13.833 1.126-24.947 12.402-25.878 26.249-.32 4.767.545 9.3 2.323 13.341h92.162c-1.778-4.041-2.643-8.574-2.323-13.341z" fill="#9e533b"></path><g><path d="m383.209 419.005c-.643 0-1.296-.09-1.945-.276-3.714-1.073-5.855-4.953-4.783-8.668 14.91-51.637 60.996-69.837 62.95-70.587 3.608-1.381 7.658.42 9.043 4.029 1.382 3.605-.415 7.647-4.015 9.037-.415.161-41.599 16.629-54.527 61.405-.886 3.066-3.684 5.06-6.723 5.06z" fill="#d2f09e"></path></g><g><path d="m383.209 320.655c-.643 0-1.296-.09-1.944-.276-3.715-1.072-5.857-4.953-4.784-8.667 3.445-11.934 8.896-23.074 16.197-33.111 2.272-3.126 6.651-3.818 9.778-1.542 3.126 2.273 3.816 6.652 1.542 9.778-6.341 8.717-11.074 18.393-14.066 28.758-.886 3.066-3.684 5.06-6.723 5.06z" fill="#d2f09e"></path></g><g><path d="m383.212 366.074c-2.338 0-4.622-1.17-5.949-3.301-17.517-28.133-47.557-35.523-47.858-35.595-3.755-.89-6.091-4.652-5.212-8.409s4.622-6.089 8.384-5.228c1.456.337 35.896 8.626 56.571 41.831 2.043 3.282 1.039 7.599-2.242 9.643-1.152.718-2.432 1.059-3.694 1.059z" fill="#d2f09e"></path></g><path d="m284.075 338.461c-20.05-16.139-44.841-25.191-65.063-17.242-.969 3.591-1.488 8.241.471 12.239 1.853 3.782 5.528 6.248 10.932 7.337l4.515 11.732c-.745 1.98-2.692 8.381.792 13.772 2.843 4.398 8.49 6.881 16.801 7.406 1.589-2.283 2.937-4.848 3.97-7.701 5.743-15.869 18.801-20.997 26.444-22.653 2.285-.494 2.959-3.424 1.138-4.89z" fill="#94dc79"></path><path d="m253.467 372.258c-25.285-1.152-16.926-19.718-16.926-19.718l-5.028-13.066c-13.711-2.327-12.655-12.766-10.753-18.889-7.173 2.447-13.823 6.925-19.538 13.906-10.583 12.926-9.055 31.914 3.385 43.064l1.517 1.359c14.329 12.844 37.06 9.967 47.343-6.656z" fill="#47cb8f"></path><g><path d="m175.291 419.005c-.643 0-1.296-.09-1.945-.276-3.714-1.073-5.855-4.953-4.783-8.668 14.91-51.637 60.996-69.837 62.95-70.587 3.608-1.381 7.658.42 9.043 4.029 1.382 3.605-.415 7.647-4.015 9.037-.415.161-41.599 16.629-54.527 61.405-.886 3.066-3.684 5.06-6.723 5.06z" fill="#d2f09e"></path></g><g><path d="m175.291 320.655c-.643 0-1.296-.09-1.944-.276-3.715-1.072-5.857-4.953-4.784-8.667 3.445-11.934 8.895-23.074 16.197-33.111 2.273-3.126 6.652-3.818 9.778-1.542 3.126 2.273 3.816 6.652 1.542 9.778-6.341 8.717-11.074 18.393-14.066 28.758-.886 3.066-3.684 5.06-6.723 5.06z" fill="#d2f09e"></path></g><path d="m79.024 321.258c6.684.498 18.378 3.3 25.138 16.089 1.509 2.855 3.375 5.278 5.489 7.285 2.279-.69 8.434-2.986 11.315-8.338 1.812-3.366 1.982-7.264.507-11.593l4.326-10.017c1.812-.829 7.127-3.68 9.101-9.318.995-2.842.965-5.925-.042-9.201-19.164-7.265-41.099 3.741-57.38 21.076-1.372 1.461-.452 3.868 1.546 4.017z" fill="#94dc79"></path><path d="m108.445 343.411c10.885 11.752 29.685 11.144 40.009-1.088l1.126-1.334c9.236-10.943 8.278-27.242-2.241-36.958-4.493-4.149-9.296-6.896-14.264-8.477 4.803 12.931-8.417 17.988-8.417 17.988l-4.796 11.105c5.493 14.815-11.375 18.754-11.417 18.764z" fill="#47cb8f"></path><g><path d="m175.294 366.074c-2.338 0-4.622-1.171-5.949-3.301-17.64-28.328-47.541-35.522-47.841-35.591-3.767-.871-6.114-4.631-5.243-8.397.871-3.765 4.624-6.11 8.397-5.243 1.456.337 35.894 8.626 56.571 41.831 2.043 3.282 1.039 7.599-2.242 9.643-1.151.717-2.43 1.058-3.693 1.058z" fill="#d2f09e"></path></g><path d="m80.198 368.866c-15.742-9.52-28.335-26.271-28.335-55.503 0-43.428-27.467-63.897-51.797-73.515-.036 1.715-.066 3.431-.066 5.154 0 70.761 30.01 134.503 77.982 179.227 20.258-10.247 24.886-41.653 2.216-55.363z" fill="#02c0fc"></path><path d="m245.002 0c-4.057 0-8.09.105-12.099.299-12.211 36.95-29.537 118.97 54.142 125.963 108.317 9.052 134.16 45.153 142.317 118.74 3.594 32.42 28.674 48.398 55.609 49.63 3.298-16.028 5.033-32.626 5.033-49.63 0-135.311-109.691-245.002-245.002-245.002z" fill="#02c0fc"></path><path d="m286.044 208.617 16.843 4.727c5.54 1.555 10.833-3.142 9.947-8.828l-5.111-32.814c-.886-5.686-7.356-8.551-12.161-5.384l-14.607 9.626z" fill="#fffbb3"></path><circle cx="382.966" cy="221.463" fill="#ade9f7" r="11.815"></circle></g></svg>